<svg id="visual" viewBox="0 0 900 600" width="900" height="600" xmlns="http://www.w3.org/2000/svg" xmlns:xlink="http://www.w3.org/1999/xlink" version="1.1"><rect x="0" y="0" width="900" height="600" fill="#f22e2e"></rect><path d="M0 375L21.5 387C43 399 86 423 128.8 430.8C171.7 438.7 214.3 430.3 257.2 430C300 429.7 343 437.3 385.8 430.3C428.7 423.3 471.3 401.7 514.2 390.2C557 378.7 600 377.3 642.8 374.3C685.7 371.3 728.3 366.7 771.2 364C814 361.3 857 360.7 878.5 360.3L900 360L900 601L878.5 601C857 601 814 601 771.2 601C728.3 601 685.7 601 642.8 601C600 601 557 601 514.2 601C471.3 601 428.7 601 385.8 601C343 601 300 601 257.2 601C214.3 601 171.7 601 128.8 601C86 601 43 601 21.5 601L0 601Z" fill="#fa7268"></path><path d="M0 415L21.5 415.8C43 416.7 86 418.3 128.8 415.7C171.7 413 214.3 406 257.2 406.5C300 407 343 415 385.8 426C428.7 437 471.3 451 514.2 446.7C557 442.3 600 419.7 642.8 421C685.7 422.3 728.3 447.7 771.2 447.8C814 448 857 423 878.5 410.5L900 398L900 601L878.5 601C857 601 814 601 771.2 601C728.3 601 685.7 601 642.8 601C600 601 557 601 514.2 601C471.3 601 428.7 601 385.8 601C343 601 300 601 257.2 601C214.3 601 171.7 601 128.8 601C86 601 43 601 21.5 601L0 601Z" fill="#ef5f67"></path><path d="M0 493L21.5 484C43 475 86 457 128.8 455.2C171.7 453.3 214.3 467.7 257.2 468C300 468.3 343 454.7 385.8 455.5C428.7 456.3 471.3 471.7 514.2 473.8C557 476 600 465 642.8 461.2C685.7 457.3 728.3 460.7 771.2 460.3C814 460 857 456 878.5 454L900 452L900 601L878.5 601C857 601 814 601 771.2 601C728.3 601 685.7 601 642.8 601C600 601 557 601 514.2 601C471.3 601 428.7 601 385.8 601C343 601 300 601 257.2 601C214.3 601 171.7 601 128.8 601C86 601 43 601 21.5 601L0 601Z" fill="#e34c67"></path><path d="M0 507L21.5 512.2C43 517.3 86 527.7 128.8 527.8C171.7 528 214.3 518 257.2 510.8C300 503.7 343 499.3 385.8 504C428.7 508.7 471.3 522.3 514.2 522.5C557 522.7 600 509.3 642.8 509.7C685.7 510 728.3 524 771.2 527.8C814 531.7 857 525.3 878.5 522.2L900 519L900 601L878.5 601C857 601 814 601 771.2 601C728.3 601 685.7 601 642.8 601C600 601 557 601 514.2 601C471.3 601 428.7 601 385.8 601C343 601 300 601 257.2 601C214.3 601 171.7 601 128.8 601C86 601 43 601 21.5 601L0 601Z" fill="#d53867"></path><path d="M0 540L21.5 537.3C43 534.7 86 529.3 128.8 526.7C171.7 524 214.3 524 257.2 530C300 536 343 548 385.8 554C428.7 560 471.3 560 514.2 561.7C557 563.3 600 566.7 642.8 566.8C685.7 567 728.3 564 771.2 564.3C814 564.7 857 568.3 878.5 570.2L900 572L900 601L878.5 601C857 601 814 601 771.2 601C728.3 601 685.7 601 642.8 601C600 601 557 601 514.2 601C471.3 601 428.7 601 385.8 601C343 601 300 601 257.2 601C214.3 601 171.7 601 128.8 601C86 601 43 601 21.5 601L0 601Z" fill="#c62368"></path></svg>